<svg width="20" height="20" viewBox="0 0 20 20" fill="none" xmlns="http://www.w3.org/2000/svg">
<g clip-path="url(#clip0_18_1031)">
<path d="M9.29164 2.83335L6.19165 7.90002C5.84998 8.45002 6.24998 9.16668 6.89998 9.16668H13.0916C13.7416 9.16668 14.1416 8.45002 13.8 7.90002L10.7083 2.83335C10.3833 2.30002 9.61664 2.30002 9.29164 2.83335Z" fill="#0085FF"/>
<path d="M14.5834 18.3334C16.6544 18.3334 18.3334 16.6544 18.3334 14.5834C18.3334 12.5123 16.6544 10.8334 14.5834 10.8334C12.5123 10.8334 10.8334 12.5123 10.8334 14.5834C10.8334 16.6544 12.5123 18.3334 14.5834 18.3334Z" fill="#0085FF"/>
<path d="M3.33333 17.9167H8.33333C8.79167 17.9167 9.16667 17.5417 9.16667 17.0833V12.0833C9.16667 11.625 8.79167 11.25 8.33333 11.25H3.33333C2.875 11.25 2.5 11.625 2.5 12.0833V17.0833C2.5 17.5417 2.875 17.9167 3.33333 17.9167Z" fill="#0085FF"/>
</g>
<defs>
<clipPath id="clip0_18_1031">
<rect width="20" height="20" fill="white"/>
</clipPath>
</defs>
</svg>
