<svg width="20" height="20" viewBox="0 0 20 20" fill="none" xmlns="http://www.w3.org/2000/svg">
<path d="M18.1 10.0001H16.1C15.5 10.0001 15.1 10.4001 15.1 11.0001C15.1 11.6001 15.5 12.0001 16.1 12.0001V14.0001H14.9C15 13.7001 15.1 13.3001 15.1 13.0001C15.1 11.3001 13.8 10.0001 12.1 10.0001C11 10.0001 10 10.6001 9.5 11.5001C9.2 12.0001 9.4 12.6001 9.9 12.9001C10.4 13.2001 11 13.0001 11.3 12.5001C11.5 12.2001 11.8 12.0001 12.2 12.0001C12.8 12.0001 13.2 12.4001 13.2 13.0001C13.2 13.6001 12.8 14.0001 12.2 14.0001C11.6 14.0001 11.2 14.4001 11.2 15.0001C11.2 15.6001 11.6 16.0001 12.2 16.0001C12.8 16.0001 13.2 16.4001 13.2 17.0001C13.2 17.6001 12.8 18.0001 12.2 18.0001C11.8 18.0001 11.5 17.8001 11.3 17.5001C11 17.0001 10.4 16.9001 9.9 17.1001C9.4 17.3001 9.3 18.0001 9.5 18.5001C10.3 19.9001 12.2 20.4001 13.6 19.6001C14.5 19.1001 15.1 18.1001 15.1 17.0001C15.1 16.7001 15 16.3001 14.9 16.0001H16.1V19.0001C16.1 19.6001 16.5 20.0001 17.1 20.0001C17.7 20.0001 18.1 19.6001 18.1 19.0001V12.0001C18.7 12.0001 19.1 11.6001 19.1 11.0001C19.1 10.4001 18.6 10.0001 18.1 10.0001ZM11.1 5.00005H12.1C12.7 5.00005 13.1 5.40005 13.1 6.00005V7.00005C13.1 7.60005 13.5 8.00005 14.1 8.00005C14.7 8.00005 15.1 7.60005 15.1 7.00005V6.00005C15.1 4.30005 13.8 3.00005 12.1 3.00005H11.1C10.5 3.00005 10.1 3.40005 10.1 4.00005C10.1 4.60005 10.5 5.00005 11.1 5.00005ZM6.1 9.20005C6.2 9.70005 6.8 10.1001 7.3 9.90005C7.8 9.70005 8.2 9.20005 8 8.70005L6.2 1.70005C6 0.500052 4.7 -0.199948 3.5 0.100052C2.7 0.300052 2 0.900052 1.8 1.70005L0 8.70005C0 9.30005 0.3 9.80005 0.8 10.0001C1.3 10.1001 1.9 9.80005 2 9.30005L2.6 7.00005H5.5L6.1 9.20005ZM3.1 5.00005L3.8 2.20005C3.8 2.10005 4 2.00005 4.2 2.00005C4.3 2.00005 4.3 2.10005 4.4 2.20005L5 5.00005H3.1ZM7.1 14.0001H6.1C5.5 14.0001 5.1 13.6001 5.1 13.0001V12.0001C5.1 11.4001 4.7 11.0001 4.1 11.0001C3.5 11.0001 3.1 11.4001 3.1 12.0001V13.0001C3.1 14.7001 4.4 16.0001 6.1 16.0001H7.1C7.7 16.0001 8.1 15.6001 8.1 15.0001C8.1 14.4001 7.6 14.0001 7.1 14.0001Z" fill="#0085FF"/>
</svg>
