<svg width="16" height="21" viewBox="0 0 16 21" fill="none" xmlns="http://www.w3.org/2000/svg">
<path d="M13.09 3.55996C12.39 2.52996 11.59 1.56996 10.69 0.709959C10.34 0.369959 9.75 0.689959 9.85 1.16996C10.04 2.10996 10.24 3.34996 10.24 4.45996C10.24 6.51996 8.89 8.18996 6.83 8.18996C5.29 8.18996 4.03 7.25996 3.48 5.92996C3.38 5.72996 3.34 5.60996 3.28 5.38996C3.17 4.96996 2.62 4.83996 2.38 5.20996C2.2 5.47996 2.03 5.74996 1.87 6.03996C0.68 8.07996 0 10.46 0 13C0 17.42 3.58 21 8 21C12.42 21 16 17.42 16 13C16 9.50996 14.92 6.26996 13.09 3.55996ZM7.71 18C5.93 18 4.49 16.6 4.49 14.86C4.49 13.24 5.54 12.1 7.3 11.74C8.77 11.44 10.28 10.81 11.33 9.81996C11.61 9.55996 12.07 9.67996 12.15 10.05C12.38 11.07 12.5 12.13 12.5 13.2C12.51 15.85 10.36 18 7.71 18Z" fill="url(#paint0_linear_618_40)"/>
<defs>
<linearGradient id="paint0_linear_618_40" x1="8" y1="0.568481" x2="8" y2="21" gradientUnits="userSpaceOnUse">
<stop stop-color="#FFBE16"/>
<stop offset="1" stop-color="#FF5C00"/>
</linearGradient>
</defs>
</svg>
