<svg width="20" height="20" viewBox="0 0 20 20" fill="none" xmlns="http://www.w3.org/2000/svg">
<path d="M15.501 19.9188C15.378 19.9212 15.2565 19.8901 15.149 19.8287L10.0097 17.1235L5.48633 19.5582C4.7399 19.9651 3.81287 19.6793 3.40947 18.9179C3.25251 18.6106 3.19693 18.2594 3.25107 17.917L4.13109 12.723L0.452585 8.99885C0.162918 8.70426 0 8.30338 0 7.8852C0 7.46702 0.162918 7.06614 0.452585 6.77156C0.688338 6.52448 0.998253 6.3657 1.33261 6.3207L6.37516 5.55422L8.61923 0.88324C8.87545 0.34296 9.41023 0 9.99647 0C10.5827 0 11.1175 0.34296 11.3737 0.88324L13.6266 5.57226L18.6867 6.34775C19.0933 6.40766 19.4593 6.63243 19.7026 6.97156C19.9458 7.31068 20.0459 7.73573 19.9804 8.15122C19.9326 8.49261 19.7782 8.80898 19.5403 9.05295L15.8794 12.732L16.3899 15.5274C16.4589 15.9529 16.1798 16.3557 15.765 16.4291C15.3573 16.5063 14.9649 16.2328 14.885 15.816L14.3658 13.0206C14.2791 12.5062 14.4435 11.9808 14.8058 11.6139L18.4755 7.90775L13.4154 7.12324C12.9064 7.04315 12.4721 6.70344 12.2625 6.2215L10.0097 1.55052L7.7304 6.29364C7.52082 6.77558 7.08651 7.11529 6.57757 7.19538L1.53502 7.96185L5.17832 11.659C5.53905 12.0195 5.70359 12.5388 5.61834 13.0476L4.73831 18.2416L9.26165 15.816C9.71134 15.5641 10.2552 15.5641 10.7049 15.816L15.8354 18.5212C16.1464 18.6887 16.3062 19.0516 16.2229 19.4014C16.1396 19.7512 15.8348 19.998 15.4834 20L15.501 19.9188Z" fill="#0085FF"/>
</svg>
