<svg width="20" height="20" viewBox="0 0 20 20" fill="none" xmlns="http://www.w3.org/2000/svg">
<path d="M1.3731 5.16335C1.57736 5.12379 1.78936 5.16536 1.96215 5.27888C2.30347 5.50552 2.40243 5.95394 2.18701 6.29776L2.1305 6.40887C1.91692 6.89799 2.10769 7.47657 2.59177 7.74704C2.98345 7.98141 3.30585 8.31138 3.52722 8.70444C4.21653 9.94093 3.78874 11.4882 2.55579 12.2178C2.03447 12.5091 1.85333 13.1577 2.15103 13.6671L2.77167 14.7123C2.91288 14.9614 3.15203 15.1435 3.43385 15.2164C3.71567 15.2894 4.01576 15.2469 4.26478 15.0988C4.66629 14.8714 5.12284 14.7531 5.58699 14.7563C7.07728 14.7563 8.28539 15.936 8.28539 17.3913C8.29033 17.9797 8.78019 18.4541 9.38274 18.4541L9.37375 18.4717C9.65332 18.4717 9.91166 18.6173 10.0514 18.8538C10.1912 19.0902 10.1912 19.3815 10.0514 19.6179C9.91166 19.8544 9.65332 20 9.37375 20C7.88346 20 6.67535 18.8202 6.67535 17.365C6.67777 17.1797 6.62799 16.9974 6.53143 16.8379C6.22964 16.3278 5.56266 16.1512 5.03832 16.4427L4.87847 16.5212C3.64151 17.0796 2.15654 16.6479 1.44046 15.4941L0.828819 14.4488C0.139503 13.2123 0.567297 11.6651 1.80024 10.9354C1.96366 10.8416 2.09987 10.7085 2.19601 10.549C2.3764 10.3034 2.44123 9.99452 2.37428 9.69949C2.30733 9.40446 2.11494 9.15121 1.84522 9.00307L1.69531 8.90769C0.57856 8.145 0.213198 6.67466 0.873792 5.48968L0.9504 5.39452C1.06199 5.2765 1.20968 5.195 1.3731 5.16335ZM17.5016 7.70192C17.8562 7.57766 18.2597 7.71243 18.4584 8.03689C18.6782 8.39846 18.5576 8.86557 18.1885 9.08213C18.0251 9.17601 17.8889 9.30902 17.7927 9.4686C17.6462 9.71296 17.6055 10.0043 17.6798 10.2781C17.7541 10.5518 17.9372 10.7853 18.1885 10.9267C19.4613 11.6717 19.8792 13.2805 19.124 14.5279L18.5123 15.5731L18.4146 15.7195C17.6336 16.81 16.1279 17.1668 14.9145 16.5217C14.578 16.3234 14.1577 16.3193 13.8172 16.5111C13.4768 16.7029 13.27 17.0603 13.2774 17.444C13.2344 17.8368 12.8949 18.1347 12.4904 18.1347C12.0859 18.1347 11.7464 17.8368 11.7034 17.444C11.7227 16.5231 12.233 15.6789 13.0494 15.2174C13.8658 14.756 14.8696 14.7443 15.697 15.1866C15.9456 15.3326 16.2442 15.3738 16.5245 15.3008C16.8043 15.2242 17.0428 15.0448 17.1901 14.8002L17.8017 13.7549C17.9479 13.5119 17.9883 13.2219 17.914 12.9496C17.8396 12.6772 17.6566 12.4453 17.406 12.3057C16.9845 12.0549 16.6445 11.6924 16.4256 11.2604C15.7362 10.0239 16.164 8.47671 17.397 7.74704L17.5016 7.70192ZM9.99438 6.70179C10.8905 6.69947 11.7508 7.04546 12.3853 7.66342C13.0198 8.28139 13.3764 9.12051 13.3764 9.99561L13.3708 10.1951C13.2967 11.4511 12.4952 12.5648 11.2949 13.0531C10.0314 13.567 8.57526 13.2866 7.60615 12.3428C6.63704 11.3989 6.34604 9.97775 6.86897 8.74258C7.39191 7.50741 8.62567 6.70179 9.99438 6.70179ZM9.99438 8.24769C9.00086 8.24769 8.19545 9.03419 8.19545 10.0044C8.19545 10.9746 9.00086 11.7611 9.99438 11.7611C10.9879 11.7611 11.7933 10.9746 11.7933 10.0044L11.7873 9.86032C11.7123 8.95751 10.9382 8.24769 9.99438 8.24769ZM10.615 0C12.1053 0 13.3134 1.17975 13.3134 2.63505C13.311 2.82028 13.3608 3.0026 13.4573 3.16206C13.6006 3.40892 13.839 3.5896 14.1194 3.66384C14.3999 3.73808 14.6991 3.69972 14.9504 3.55731C16.2167 2.88418 17.8011 3.30193 18.5483 4.50593C18.7548 4.87335 18.6278 5.33444 18.2605 5.55116C17.8872 5.75928 17.412 5.6384 17.1901 5.27888L17.1194 5.1754C16.7908 4.74961 16.1817 4.62035 15.697 4.8924C14.871 5.33407 13.869 5.32329 13.0532 4.86395C12.2373 4.40461 11.7258 3.56317 11.7034 2.64383C11.7131 2.35592 11.6028 2.07648 11.3976 1.8695C11.1924 1.66252 10.91 1.54574 10.615 1.54589H9.38274C9.08697 1.54581 8.80369 1.66232 8.5971 1.86901C8.39051 2.07571 8.27812 2.35509 8.28539 2.64383C8.27705 3.56818 7.76507 4.41819 6.94182 4.87447C6.11856 5.33075 5.10873 5.3242 4.29176 4.85727L4.25578 4.82213L4.16924 4.76137C3.87176 4.52112 3.79447 4.09717 4.00393 3.76812C4.23244 3.40914 4.71569 3.29903 5.08329 3.52218C5.24738 3.61568 5.43305 3.66705 5.62297 3.6715C5.91407 3.68339 6.19806 3.58174 6.41235 3.38897C6.62663 3.19619 6.75361 2.92811 6.76529 2.64383C6.75976 1.21545 7.92066 0.0428416 9.38274 0H10.615Z" fill="#0085FF"/>
</svg>
