<svg width="14" height="14" viewBox="0 0 14 14" fill="none" xmlns="http://www.w3.org/2000/svg">
<path d="M11.5 12.25H2.5C2.0875 12.25 1.75 11.9125 1.75 11.5V2.5C1.75 2.0875 2.0875 1.75 2.5 1.75H6.25C6.6625 1.75 7 1.4125 7 1C7 0.5875 6.6625 0.25 6.25 0.25H1.75C0.9175 0.25 0.25 0.925 0.25 1.75V12.25C0.25 13.075 0.925 13.75 1.75 13.75H12.25C13.075 13.75 13.75 13.075 13.75 12.25V7.75C13.75 7.3375 13.4125 7 13 7C12.5875 7 12.25 7.3375 12.25 7.75V11.5C12.25 11.9125 11.9125 12.25 11.5 12.25ZM8.5 1C8.5 1.4125 8.8375 1.75 9.25 1.75H11.1925L4.345 8.5975C4.0525 8.89 4.0525 9.3625 4.345 9.655C4.6375 9.9475 5.11 9.9475 5.4025 9.655L12.25 2.8075V4.75C12.25 5.1625 12.5875 5.5 13 5.5C13.4125 5.5 13.75 5.1625 13.75 4.75V1C13.75 0.5875 13.4125 0.25 13 0.25H9.25C8.8375 0.25 8.5 0.5875 8.5 1Z" fill="#B4B4B4"/>
</svg>
