<svg width="18" height="17" viewBox="0 0 18 17" fill="none" xmlns="http://www.w3.org/2000/svg">
<path d="M15.6666 3.99996H13.85C13.9416 3.74163 14 3.45829 14 3.16663C14 1.78329 12.8833 0.666626 11.5 0.666626C10.625 0.666626 9.86663 1.11663 9.41663 1.79163L8.99996 2.34996L8.58329 1.78329C8.13329 1.11663 7.37496 0.666626 6.49996 0.666626C5.11663 0.666626 3.99996 1.78329 3.99996 3.16663C3.99996 3.45829 4.05829 3.74163 4.14996 3.99996H2.33329C1.40829 3.99996 0.674959 4.74163 0.674959 5.66663L0.666626 14.8333C0.666626 15.7583 1.40829 16.5 2.33329 16.5H15.6666C16.5916 16.5 17.3333 15.7583 17.3333 14.8333V5.66663C17.3333 4.74163 16.5916 3.99996 15.6666 3.99996ZM11.5 2.33329C11.9583 2.33329 12.3333 2.70829 12.3333 3.16663C12.3333 3.62496 11.9583 3.99996 11.5 3.99996C11.0416 3.99996 10.6666 3.62496 10.6666 3.16663C10.6666 2.70829 11.0416 2.33329 11.5 2.33329ZM6.49996 2.33329C6.95829 2.33329 7.33329 2.70829 7.33329 3.16663C7.33329 3.62496 6.95829 3.99996 6.49996 3.99996C6.04163 3.99996 5.66663 3.62496 5.66663 3.16663C5.66663 2.70829 6.04163 2.33329 6.49996 2.33329ZM15.6666 14.8333H2.33329V13.1666H15.6666V14.8333ZM15.6666 10.6666H2.33329V6.49996C2.33329 6.04163 2.70829 5.66663 3.16663 5.66663H6.56663L5.33329 7.34996C5.05829 7.72496 5.14163 8.24996 5.51663 8.51663C5.88329 8.78329 6.40829 8.69996 6.67496 8.33329L8.99996 5.16663L11.325 8.33329C11.5916 8.69996 12.1166 8.78329 12.4833 8.51663C12.8583 8.24996 12.9416 7.72496 12.6666 7.34996L11.4333 5.66663H14.8333C15.2916 5.66663 15.6666 6.04163 15.6666 6.49996V10.6666Z" fill="#FF5757"/>
</svg>
