<svg width="22" height="17" viewBox="0 0 22 17" fill="none" xmlns="http://www.w3.org/2000/svg">
<path d="M1.83336 8.08333H7.33336C7.57648 8.08333 7.80963 7.98676 7.98154 7.81485C8.15345 7.64294 8.25003 7.40978 8.25003 7.16667V1.66667C8.25003 1.42355 8.15345 1.19039 7.98154 1.01849C7.80963 0.846577 7.57648 0.75 7.33336 0.75H1.83336C1.59025 0.75 1.35709 0.846577 1.18518 1.01849C1.01327 1.19039 0.916694 1.42355 0.916694 1.66667V7.16667C0.916694 7.40978 1.01327 7.64294 1.18518 7.81485C1.35709 7.98676 1.59025 8.08333 1.83336 8.08333ZM2.75003 2.58333H6.41669V6.25H2.75003V2.58333ZM20.1667 3.5H11C10.7569 3.5 10.5238 3.59658 10.3518 3.76849C10.1799 3.94039 10.0834 4.17355 10.0834 4.41667C10.0834 4.65978 10.1799 4.89294 10.3518 5.06485C10.5238 5.23676 10.7569 5.33333 11 5.33333H20.1667C20.4098 5.33333 20.643 5.23676 20.8149 5.06485C20.9868 4.89294 21.0834 4.65978 21.0834 4.41667C21.0834 4.17355 20.9868 3.94039 20.8149 3.76849C20.643 3.59658 20.4098 3.5 20.1667 3.5ZM20.1667 12.6667H11C10.7569 12.6667 10.5238 12.7632 10.3518 12.9352C10.1799 13.1071 10.0834 13.3402 10.0834 13.5833C10.0834 13.8264 10.1799 14.0596 10.3518 14.2315C10.5238 14.4034 10.7569 14.5 11 14.5H20.1667C20.4098 14.5 20.643 14.4034 20.8149 14.2315C20.9868 14.0596 21.0834 13.8264 21.0834 13.5833C21.0834 13.3402 20.9868 13.1071 20.8149 12.9352C20.643 12.7632 20.4098 12.6667 20.1667 12.6667ZM3.61353 16.3333H3.62453C3.86488 16.3326 4.09531 16.2374 4.26619 16.0684L7.97503 12.4017C8.07019 12.3199 8.14751 12.2193 8.2022 12.1063C8.25689 11.9933 8.28778 11.8702 8.29296 11.7448C8.29814 11.6194 8.2775 11.4942 8.23232 11.3771C8.18714 11.2599 8.11837 11.1533 8.03029 11.0639C7.94221 10.9744 7.83669 10.904 7.72028 10.857C7.60386 10.81 7.47903 10.7874 7.35353 10.7906C7.22802 10.7938 7.10452 10.8228 6.99067 10.8757C6.87683 10.9286 6.77506 11.0044 6.69169 11.0982L3.64011 14.1132L2.49244 12.9215C2.40872 12.8349 2.30877 12.7657 2.1983 12.7178C2.08783 12.6699 1.969 12.6442 1.84859 12.6422C1.60543 12.6381 1.37062 12.7309 1.19582 12.9C1.02102 13.069 0.920548 13.3006 0.916509 13.5438C0.912469 13.787 1.00519 14.0218 1.17428 14.1966L2.96544 16.0583C3.05002 16.1446 3.15081 16.2133 3.26203 16.2605C3.37325 16.3077 3.49271 16.3325 3.61353 16.3333Z" fill="#0085FF"/>
</svg>
