<svg width="18" height="18" viewBox="0 0 18 18" fill="none" xmlns="http://www.w3.org/2000/svg">
<path d="M13.4494 4.55063C13.3299 3.90509 12.9884 3.32169 12.4839 2.90151C11.9795 2.48134 11.344 2.25085 10.6875 2.25H5.0625C4.31658 2.25 3.60121 2.54632 3.07376 3.07376C2.54632 3.60121 2.25 4.31658 2.25 5.0625V12.9375C2.25 13.6834 2.54632 14.3988 3.07376 14.9262C3.60121 15.4537 4.31658 15.75 5.0625 15.75H12.9375C13.6834 15.75 14.3988 15.4537 14.9262 14.9262C15.4537 14.3988 15.75 13.6834 15.75 12.9375V7.3125C15.7491 6.656 15.5187 6.02049 15.0985 5.51607C14.6783 5.01165 14.0949 4.67011 13.4494 4.55063ZM14.625 12.9375C14.625 13.3851 14.4472 13.8143 14.1307 14.1307C13.8143 14.4472 13.3851 14.625 12.9375 14.625H5.0625C4.61495 14.625 4.18572 14.4472 3.86926 14.1307C3.55279 13.8143 3.375 13.3851 3.375 12.9375V5.0625C3.375 4.61495 3.55279 4.18572 3.86926 3.86926C4.18572 3.55279 4.61495 3.375 5.0625 3.375H10.6875C11.0357 3.37598 11.375 3.48462 11.659 3.68603C11.943 3.88744 12.1577 4.17175 12.2738 4.5H6.1875C6.03832 4.5 5.89524 4.55926 5.78975 4.66475C5.68426 4.77024 5.625 4.91332 5.625 5.0625C5.625 5.21168 5.68426 5.35476 5.78975 5.46025C5.89524 5.56574 6.03832 5.625 6.1875 5.625H12.9375C13.1296 5.62378 13.3203 5.65811 13.5 5.72625C13.8282 5.8423 14.1126 6.05704 14.314 6.34103C14.5154 6.62501 14.624 6.96434 14.625 7.3125V12.9375Z" fill="white"/>
<path d="M12.375 8.53878C12.1953 8.47064 12.0046 8.43631 11.8125 8.43753C11.3649 8.43753 10.9357 8.61532 10.6193 8.93179C10.3028 9.24826 10.125 9.67748 10.125 10.125C10.125 10.5726 10.3028 11.0018 10.6193 11.3183C10.9357 11.6347 11.3649 11.8125 11.8125 11.8125C11.8573 11.818 11.9027 11.818 11.9475 11.8125C12.3281 11.7766 12.6852 11.6125 12.9604 11.3471C13.2356 11.0818 13.4125 10.7308 13.4621 10.3517C13.5118 9.97269 13.4313 9.588 13.2338 9.26068C13.0363 8.93336 12.7335 8.6828 12.375 8.55003V8.53878ZM11.8125 10.6875C11.7012 10.6875 11.5925 10.6545 11.5 10.5927C11.4075 10.5309 11.3354 10.4431 11.2928 10.3403C11.2502 10.2375 11.2391 10.1244 11.2608 10.0153C11.2825 9.90618 11.3361 9.80595 11.4148 9.72728C11.4934 9.64862 11.5936 9.59504 11.7028 9.57334C11.8119 9.55164 11.925 9.56277 12.0278 9.60535C12.1305 9.64792 12.2184 9.72002 12.2802 9.81252C12.342 9.90503 12.375 10.0138 12.375 10.125C12.375 10.2742 12.3157 10.4173 12.2102 10.5228C12.1048 10.6283 11.9617 10.6875 11.8125 10.6875Z" fill="white"/>
</svg>
