<svg width="18" height="18" viewBox="0 0 18 18" fill="none" xmlns="http://www.w3.org/2000/svg">
<path d="M8.99163 0.666626C4.39163 0.666626 0.666626 4.39996 0.666626 8.99996C0.666626 13.6 4.39163 17.3333 8.99163 17.3333C13.6 17.3333 17.3333 13.6 17.3333 8.99996C17.3333 4.39996 13.6 0.666626 8.99163 0.666626ZM8.99996 15.6666C5.31663 15.6666 2.33329 12.6833 2.33329 8.99996C2.33329 5.31663 5.31663 2.33329 8.99996 2.33329C12.6833 2.33329 15.6666 5.31663 15.6666 8.99996C15.6666 12.6833 12.6833 15.6666 8.99996 15.6666ZM8.81663 4.83329H8.76663C8.43329 4.83329 8.16663 5.09996 8.16663 5.43329V9.36663C8.16663 9.65829 8.31663 9.93329 8.57496 10.0833L12.0333 12.1583C12.3166 12.325 12.6833 12.2416 12.85 11.9583C13.025 11.675 12.9333 11.3 12.6416 11.1333L9.41663 9.21663V5.43329C9.41663 5.09996 9.14996 4.83329 8.81663 4.83329Z" fill="#FF9E0C"/>
</svg>
