<svg width="18" height="20" viewBox="0 0 18 20" fill="none" xmlns="http://www.w3.org/2000/svg">
<path d="M12.8534 0C16.0668 0 17.9913 1.95143 18 5.20971V14.7903C18 18.0486 16.0842 20 12.8621 20H10.0058C9.6395 19.959 9.36224 19.6452 9.36224 19.2715C9.36224 18.8978 9.6395 18.584 10.0058 18.543H12.8534C15.3091 18.543 16.5457 17.2804 16.5457 14.7903V5.20971C16.5457 2.71965 15.3091 1.45695 12.8534 1.45695H5.13788C2.68215 1.45695 1.43686 2.71965 1.43686 5.20971V14.7903C1.43686 17.2804 2.68215 18.543 5.13788 18.543C5.50419 18.584 5.78145 18.8978 5.78145 19.2715C5.78145 19.6452 5.50419 19.959 5.13788 20C1.92453 20 0 18.0486 0 14.7903V5.20971C0 1.9426 1.92453 0 5.13788 0H12.8534ZM12.5922 13.5099C12.9865 13.5099 13.3062 13.8341 13.3062 14.234C13.3062 14.6339 12.9865 14.9581 12.5922 14.9581H5.38171C4.98734 14.9581 4.66763 14.6339 4.66763 14.234C4.66763 13.8341 4.98734 13.5099 5.38171 13.5099H12.5922ZM12.5922 9.27152C12.8677 9.24072 13.1364 9.37244 13.2837 9.61057C13.431 9.84871 13.431 10.1513 13.2837 10.3894C13.1364 10.6276 12.8677 10.7593 12.5922 10.7285H5.38171C5.01541 10.6875 4.73814 10.3737 4.73814 10C4.73814 9.62632 5.01541 9.31248 5.38171 9.27152H12.5922ZM8.13353 5.04194C8.49983 5.0829 8.7771 5.39674 8.7771 5.77042C8.7771 6.1441 8.49983 6.45794 8.13353 6.4989H5.39042C5.02411 6.45794 4.74685 6.1441 4.74685 5.77042C4.74685 5.39674 5.02411 5.0829 5.39042 5.04194H8.13353Z" fill="#0085FF"/>
</svg>
