<svg width="28" height="28" viewBox="0 0 28 28" fill="none" xmlns="http://www.w3.org/2000/svg">
<g clip-path="url(#clip0_18_958)">
<path d="M12.1012 16.8516L16.8542 13.9999L12.1012 11.1483V16.8516Z" fill="#FF3131"/>
<path d="M14 0C6.2685 0 0 6.26762 0 14C0 21.7324 6.2685 28 14 28C21.7315 28 28 21.7315 28 14C28 6.2685 21.7315 0 14 0ZM21.602 14.6134C21.602 15.9259 21.4497 17.2384 21.4497 17.2384C21.4497 17.2384 21.301 18.3566 20.846 18.8475C20.2676 19.4932 19.6201 19.4967 19.3226 19.5352C17.1946 19.698 14 19.7032 14 19.7032C14 19.7032 10.0468 19.6648 8.8305 19.5405C8.49187 19.4731 7.73325 19.4924 7.154 18.8475C6.69812 18.3558 6.55025 17.2384 6.55025 17.2384C6.55025 17.2384 6.398 15.9268 6.398 14.6134V13.3831C6.398 12.0706 6.55025 10.759 6.55025 10.759C6.55025 10.759 6.699 9.64075 7.154 9.14812C7.73237 8.5015 8.37988 8.498 8.67737 8.46125C10.8045 8.29675 13.9965 8.29675 13.9965 8.29675H14.0035C14.0035 8.29675 17.1955 8.29675 19.3226 8.46125C19.6192 8.498 20.2676 8.5015 20.846 9.14725C21.3019 9.63988 21.4497 10.7581 21.4497 10.7581C21.4497 10.7581 21.602 12.0706 21.602 13.3831V14.6134Z" fill="#FF3131"/>
</g>
<defs>
<clipPath id="clip0_18_958">
<rect width="28" height="28" fill="white"/>
</clipPath>
</defs>
</svg>
