<svg width="8" height="14" viewBox="0 0 8 14" fill="none" xmlns="http://www.w3.org/2000/svg">
<path d="M1.33333 0.333374C0.6 0.333374 0 0.933374 0 1.66671V3.78004C0 4.13337 0.14 4.47337 0.393333 4.72671L2.66667 7.00004L0.386667 9.28004C0.14 9.53337 0 9.87337 0 10.2267V12.3334C0 13.0667 0.6 13.6667 1.33333 13.6667H6.66667C7.4 13.6667 8 13.0667 8 12.3334V10.2267C8 9.87337 7.86 9.53337 7.61333 9.28671L5.33333 7.00004L7.60667 4.73337C7.86 4.48004 8 4.14004 8 3.78671V1.66671C8 0.933374 7.4 0.333374 6.66667 0.333374H1.33333ZM6.66667 10V11.6667C6.66667 12.0334 6.36667 12.3334 6 12.3334H2C1.63333 12.3334 1.33333 12.0334 1.33333 11.6667V10L4 7.33337L6.66667 10ZM4 6.66671L1.33333 4.00004V2.33337C1.33333 1.96671 1.63333 1.66671 2 1.66671H6C6.36667 1.66671 6.66667 1.96671 6.66667 2.33337V4.00004L4 6.66671Z" fill="white"/>
</svg>
