<svg width="20" height="20" viewBox="0 0 20 20" fill="none" xmlns="http://www.w3.org/2000/svg">
<path d="M10 0.833374C4.94004 0.833374 0.833374 4.94004 0.833374 10C0.833374 15.06 4.94004 19.1667 10 19.1667C15.06 19.1667 19.1667 15.06 19.1667 10C19.1667 4.94004 15.06 0.833374 10 0.833374ZM10 17.3334C5.95754 17.3334 2.66671 14.0425 2.66671 10C2.66671 5.95754 5.95754 2.66671 10 2.66671C14.0425 2.66671 17.3334 5.95754 17.3334 10C17.3334 14.0425 14.0425 17.3334 10 17.3334ZM13.5567 6.59921L8.16671 11.9892L6.44337 10.2659C6.08587 9.90837 5.50837 9.90837 5.15087 10.2659C4.79337 10.6234 4.79337 11.2009 5.15087 11.5584L7.52504 13.9325C7.88254 14.29 8.46004 14.29 8.81754 13.9325L14.8584 7.89171C15.2159 7.53421 15.2159 6.95671 14.8584 6.59921C14.5009 6.24171 13.9142 6.24171 13.5567 6.59921Z" fill="#0085FF"/>
</svg>
